<svg version="1.1" id="Layer_1"
    xmlns="http://www.w3.org/2000/svg"
    xmlns:xlink="http://www.w3.org/1999/xlink" viewBox="0 0 512 512" xml:space="preserve" fill="#000000">
    <g id="SVGRepo_bgCarrier" stroke-width="0"></g>
    <g id="SVGRepo_tracerCarrier" stroke-linecap="round" stroke-linejoin="round"></g>
    <g id="SVGRepo_iconCarrier">
        <rect x="132.632" y="84.578" style="fill:#B5DDF8;" width="364.796" height="342.846"></rect>
        <rect x="185.102" y="137.048" style="fill:#074761;" width="259.857" height="237.907"></rect>
        <rect x="14.575" y="84.578" style="fill:#509ED9;" width="118.057" height="342.846"></rect>
        <path d="M398.106,224.416c-0.947,0-1.911-0.089-2.857-0.277c-0.934-0.189-1.852-0.466-2.725-0.831 c-0.876-0.364-1.72-0.816-2.521-1.341c-0.787-0.539-1.53-1.135-2.215-1.806c-0.67-0.686-1.268-1.428-1.807-2.23 c-0.525-0.787-0.977-1.632-1.341-2.507c-0.364-0.889-0.641-1.807-0.831-2.726c-0.189-0.947-0.29-1.911-0.29-2.857 c0-0.947,0.101-1.911,0.29-2.842c0.189-0.934,0.466-1.852,0.831-2.726c0.364-0.873,0.816-1.734,1.341-2.521 c0.539-0.802,1.137-1.545,1.807-2.215c0.685-0.67,1.427-1.283,2.215-1.807c0.803-0.523,1.647-0.977,2.521-1.341 c0.874-0.364,1.791-0.64,2.725-0.831c1.88-0.379,3.819-0.379,5.699,0c0.933,0.191,1.851,0.466,2.724,0.831 c0.876,0.364,1.721,0.818,2.521,1.341c0.787,0.525,1.53,1.137,2.201,1.807c0.686,0.67,1.283,1.414,1.822,2.215 c0.525,0.787,0.977,1.632,1.341,2.521c0.364,0.875,0.641,1.791,0.831,2.726c0.189,0.933,0.292,1.895,0.292,2.842 c0,0.96-0.102,1.909-0.292,2.857c-0.189,0.918-0.466,1.836-0.831,2.726c-0.364,0.874-0.816,1.72-1.341,2.507 c-0.539,0.802-1.135,1.545-1.822,2.23c-0.67,0.67-1.414,1.267-2.201,1.806c-0.802,0.525-1.647,0.977-2.521,1.341 c-0.875,0.364-1.791,0.641-2.724,0.831C400.015,224.327,399.052,224.416,398.106,224.416z"></path>
        <path d="M228.832,316.734c-0.947,0-1.909-0.102-2.857-0.292c-0.918-0.189-1.836-0.466-2.726-0.831 c-0.874-0.364-1.72-0.816-2.507-1.341c-0.802-0.523-1.545-1.137-2.23-1.807c-0.67-0.67-1.268-1.427-1.807-2.215 c-0.525-0.802-0.977-1.647-1.341-2.521c-0.364-0.875-0.641-1.791-0.831-2.724c-0.189-0.934-0.277-1.896-0.277-2.842 c0-0.947,0.087-1.911,0.277-2.857c0.189-0.918,0.466-1.838,0.831-2.726c0.364-0.876,0.816-1.72,1.341-2.507 c0.539-0.803,1.137-1.546,1.807-2.217c0.685-0.67,1.428-1.283,2.215-1.822c0.802-0.525,1.647-0.977,2.521-1.341 s1.793-0.641,2.726-0.831c1.88-0.379,3.819-0.379,5.699,0c0.933,0.189,1.851,0.466,2.726,0.831s1.734,0.816,2.521,1.341 c0.802,0.539,1.545,1.151,2.215,1.822c0.67,0.67,1.283,1.414,1.807,2.217c0.525,0.787,0.977,1.631,1.341,2.507 c0.364,0.888,0.641,1.807,0.831,2.726c0.189,0.946,0.291,1.909,0.291,2.857c0,0.946-0.102,1.909-0.291,2.842 c-0.189,0.933-0.466,1.851-0.831,2.724c-0.364,0.876-0.816,1.721-1.341,2.521c-0.525,0.787-1.137,1.545-1.807,2.215 c-0.67,0.67-1.414,1.284-2.215,1.807c-0.787,0.525-1.647,0.977-2.521,1.341c-0.874,0.364-1.793,0.641-2.726,0.831 C230.742,316.63,229.78,316.734,228.832,316.734z"></path>
        <circle style="fill:#B5DDF8;" cx="73.603" cy="322.441" r="47.004"></circle>
        <path d="M497.425,70.002H132.632H14.575C6.525,70.002,0,76.529,0,84.577v342.846c0,8.048,6.525,14.575,14.575,14.575h118.057 h364.793c8.048,0,14.575-6.527,14.575-14.575V84.577C512,76.527,505.473,70.002,497.425,70.002z M118.057,99.152v180.739 c-11.217-11.715-26.991-19.033-44.454-19.033s-33.237,7.318-44.454,19.033v-34.579h38.833c8.05,0,14.575-6.527,14.575-14.575 c0-8.048-6.525-14.575-14.575-14.575H29.15v-18.564h38.833c8.05,0,14.575-6.527,14.575-14.575c0-8.048-6.525-14.575-14.575-14.575 H29.15v-18.564h38.833c8.05,0,14.575-6.527,14.575-14.575c0-8.048-6.525-14.575-14.575-14.575H29.15V99.152H118.057z M106.033,322.437c0,17.882-14.547,32.429-32.429,32.429s-32.429-14.547-32.429-32.429s14.547-32.429,32.429-32.429 S106.033,304.555,106.033,322.437z M29.15,364.983c11.217,11.715,26.991,19.033,44.454,19.033s33.237-7.318,44.454-19.033v47.866 H29.15V364.983z M482.85,412.848H147.207V99.152H482.85V412.848z"></path>
        <path d="M185.102,389.528h259.852c8.048,0,14.575-6.527,14.575-14.575V137.047c0-8.048-6.527-14.575-14.575-14.575H185.102 c-8.05,0-14.575,6.527-14.575,14.575v237.907C170.527,383.002,177.053,389.528,185.102,389.528z M430.38,151.622v135.958H272.551 c-8.048,0-14.575,6.527-14.575,14.575s6.527,14.575,14.575,14.575h157.828v43.649H199.677V224.42h154.698 c8.048,0,14.575-6.527,14.575-14.575s-6.527-14.575-14.575-14.575H199.677v-43.649L430.38,151.622L430.38,151.622z"></path>
    </g>
</svg>