<svg width="32" height="27" viewBox="0 0 32 27" fill="none" xmlns="http://www.w3.org/2000/svg">
<path fill-rule="evenodd" clip-rule="evenodd" d="M7.68683 1.85833C8.08975 1.32015 8.61221 0.883335 9.21284 0.582482C9.81347 0.281629 10.4758 0.125 11.1473 0.125H27.0078C28.155 0.125 29.2552 0.581546 30.0664 1.3942C30.8776 2.20686 31.3333 3.30906 31.3333 4.45833V21.7917C31.3333 22.9409 30.8776 24.0431 30.0664 24.8558C29.2552 25.6685 28.155 26.125 27.0078 26.125H11.1473C10.4758 26.125 9.81347 25.9684 9.21284 25.6675C8.61221 25.3667 8.08975 24.9298 7.68683 24.3917L1.19846 15.725C0.636903 14.9749 0.333344 14.0626 0.333344 13.125C0.333344 12.1874 0.636903 11.2751 1.19846 10.525L7.68683 1.85833ZM23.7016 9.81289C23.9642 9.54046 24.1096 9.17559 24.1063 8.79687C24.103 8.41814 23.9513 8.05585 23.684 7.78804C23.4167 7.52023 23.055 7.36832 22.677 7.36503C22.2989 7.36174 21.9347 7.50733 21.6628 7.77044L18.3566 11.0826L15.0504 7.77044C14.9174 7.63249 14.7583 7.52244 14.5824 7.44674C14.4065 7.37104 14.2173 7.33119 14.0258 7.32953C13.8344 7.32786 13.6445 7.36441 13.4673 7.43704C13.2901 7.50966 13.1291 7.61692 12.9938 7.75254C12.8584 7.88816 12.7513 8.04944 12.6788 8.22696C12.6063 8.40447 12.5698 8.59468 12.5715 8.78647C12.5732 8.97826 12.6129 9.1678 12.6885 9.34403C12.7641 9.52026 12.8739 9.67964 13.0116 9.81289L16.3178 13.125L13.0116 16.4371C12.749 16.7095 12.6036 17.0744 12.6069 17.4531C12.6102 17.8319 12.7619 18.1941 13.0292 18.462C13.2965 18.7298 13.6582 18.8817 14.0362 18.885C14.4143 18.8883 14.7785 18.7427 15.0504 18.4796L18.3566 15.1674L21.6628 18.4796C21.9347 18.7427 22.2989 18.8883 22.677 18.885C23.055 18.8817 23.4167 18.7298 23.684 18.462C23.9513 18.1941 24.103 17.8319 24.1063 17.4531C24.1096 17.0744 23.9642 16.7095 23.7016 16.4371L20.3954 13.125L23.7016 9.81289Z" fill="#000"/>
</svg>
