<svg version="1.1" id="Layer_1"
    xmlns="http://www.w3.org/2000/svg"
    xmlns:xlink="http://www.w3.org/1999/xlink" viewBox="0 0 512 512" xml:space="preserve" fill="#000000">
    <g id="SVGRepo_bgCarrier" stroke-width="0"></g>
    <g id="SVGRepo_tracerCarrier" stroke-linecap="round" stroke-linejoin="round"></g>
    <g id="SVGRepo_iconCarrier">
        <path style="fill:#A9825A;" d="M255.998,213.547c-33.037,0-59.819,205.596-59.819,238.633S222.96,512,255.998,512 s59.819-26.782,59.819-59.819S289.035,213.547,255.998,213.547z M255.998,473.407c-11.723,0-21.226-9.503-21.226-21.226 s9.503-21.226,21.226-21.226s21.226,9.503,21.226,21.226S267.72,473.407,255.998,473.407z"></path>
        <g>
            <path style="fill:#7E6142;" d="M295.778,308.005c-10.572-50.517-24.507-94.456-39.78-94.456s-29.208,43.94-39.78,94.456H295.778z"></path>
            <path style="fill:#7E6142;" d="M256.843,213.595v217.402c11.329,0.446,20.382,9.746,20.382,21.183 c0,11.438-9.053,20.737-20.382,21.183v38.615c32.647-0.454,58.975-27.044,58.975-59.797 C315.817,419.426,289.49,217.048,256.843,213.595z"></path>
        </g>
        <path style="fill:#FFDC35;" d="M370.49,9.808c0-5.416-4.391-9.808-9.808-9.808H151.313c-5.416,0-9.808,4.391-9.808,9.808v238.393 c0,15.675,12.708,28.383,28.383,28.383h172.22c15.675,0,28.383-12.708,28.383-28.383V9.808z"></path>
        <path style="fill:#FF9900;" d="M360.683,0h-103.84v276.582h85.265c15.675,0,28.383-12.708,28.383-28.383V9.808 C370.49,4.391,366.099,0,360.683,0z"></path>
        <path style="fill:#A9825A;" d="M141.506,248.2c0,15.675,12.708,28.383,28.383,28.383h172.22c15.675,0,28.383-12.708,28.383-28.383 v-48.44H141.506V248.2z"></path>
        <path style="fill:#7E6142;" d="M256.843,276.582h85.265c15.675,0,28.383-12.708,28.383-28.383v-48.44H256.843V276.582z"></path>
        <rect x="141.51" y="166.367" style="fill:#A38A67;" width="228.986" height="33.391"></rect>
        <rect x="141.51" y="199.758" style="fill:#7E6142;" width="228.986" height="13.787"></rect>
        <rect x="256.844" y="166.367" style="fill:#91795C;" width="113.653" height="33.391"></rect>
        <rect x="256.844" y="199.758" style="fill:#533F29;" width="113.653" height="13.787"></rect>
        <path style="fill:#FF9900;" d="M370.49,23.165c0-5.416-4.391-9.808-9.808-9.808h-99.159h-33.391h-20.035h-33.391h-23.394 c-5.416,0-9.808,4.391-9.808,9.808v26.829h33.201v38.609c0,9.22,7.475,16.696,16.696,16.696s16.696-7.475,16.696-16.696V49.993 h20.035v8.557c0,9.22,7.475,16.696,16.696,16.696c9.22,0,16.696-7.475,16.696-16.696v-8.557h108.966V23.165H370.49z"></path>
        <path style="fill:#FDF7D0;" d="M370.49,9.808c0-5.416-4.391-9.808-9.808-9.808h-103.84h-28.71h-20.035h-33.391h-23.394 c-5.416,0-9.808,4.391-9.808,9.808v26.829h33.201v38.609c0,9.22,7.475,16.696,16.696,16.696c9.22,0,16.696-7.475,16.696-16.696 V36.637h20.035v8.557c0,9.22,7.475,16.696,16.696,16.696c9.22,0,16.696-7.475,16.696-16.696v-8.557h108.966V9.808H370.49z"></path>
    </g>
</svg>